<mxfile host="app.diagrams.net" modified="2023-11-26T15:30:05.853Z" agent="Mozilla/5.0 (Windows NT 10.0; Win64; x64) AppleWebKit/537.36 (KHTML, like Gecko) Chrome/119.0.0.0 Safari/537.36" etag="CW-An4XzSrnNK56WZPS6" version="22.1.4" type="device">
  <diagram name="Page-1" id="IKhVUgUdn-az1HDO5u4m">
    <mxGraphModel dx="1018" dy="540" grid="1" gridSize="10" guides="1" tooltips="1" connect="1" arrows="1" fold="1" page="1" pageScale="1" pageWidth="850" pageHeight="1100" math="0" shadow="0">
      <root>
        <mxCell id="0" />
        <mxCell id="1" parent="0" />
        <mxCell id="Kcpcdb8gBXc4u03T2jaD-1" value="Form" style="rounded=0;whiteSpace=wrap;html=1;" vertex="1" parent="1">
          <mxGeometry x="260" y="180" width="100" height="30" as="geometry" />
        </mxCell>
        <mxCell id="Kcpcdb8gBXc4u03T2jaD-3" value="" style="endArrow=none;dashed=1;html=1;dashPattern=1 3;strokeWidth=2;rounded=0;entryX=0.5;entryY=1;entryDx=0;entryDy=0;" edge="1" parent="1" source="Kcpcdb8gBXc4u03T2jaD-4" target="Kcpcdb8gBXc4u03T2jaD-1">
          <mxGeometry width="50" height="50" relative="1" as="geometry">
            <mxPoint x="310" y="660" as="sourcePoint" />
            <mxPoint x="450" y="310" as="targetPoint" />
          </mxGeometry>
        </mxCell>
        <mxCell id="Kcpcdb8gBXc4u03T2jaD-5" value="" style="endArrow=none;dashed=1;html=1;dashPattern=1 3;strokeWidth=2;rounded=0;entryX=0.5;entryY=1;entryDx=0;entryDy=0;" edge="1" parent="1" target="Kcpcdb8gBXc4u03T2jaD-4">
          <mxGeometry width="50" height="50" relative="1" as="geometry">
            <mxPoint x="310" y="660" as="sourcePoint" />
            <mxPoint x="310" y="210" as="targetPoint" />
          </mxGeometry>
        </mxCell>
        <mxCell id="Kcpcdb8gBXc4u03T2jaD-4" value="" style="rounded=0;whiteSpace=wrap;html=1;" vertex="1" parent="1">
          <mxGeometry x="300" y="230" width="20" height="390" as="geometry" />
        </mxCell>
        <mxCell id="Kcpcdb8gBXc4u03T2jaD-6" value="Command" style="rounded=0;whiteSpace=wrap;html=1;" vertex="1" parent="1">
          <mxGeometry x="410" y="180" width="100" height="30" as="geometry" />
        </mxCell>
        <mxCell id="Kcpcdb8gBXc4u03T2jaD-7" value="" style="endArrow=none;dashed=1;html=1;dashPattern=1 3;strokeWidth=2;rounded=0;entryX=0.5;entryY=1;entryDx=0;entryDy=0;" edge="1" parent="1" source="Kcpcdb8gBXc4u03T2jaD-9" target="Kcpcdb8gBXc4u03T2jaD-6">
          <mxGeometry width="50" height="50" relative="1" as="geometry">
            <mxPoint x="460" y="660" as="sourcePoint" />
            <mxPoint x="600" y="310" as="targetPoint" />
          </mxGeometry>
        </mxCell>
        <mxCell id="Kcpcdb8gBXc4u03T2jaD-8" value="" style="endArrow=none;dashed=1;html=1;dashPattern=1 3;strokeWidth=2;rounded=0;entryX=0.5;entryY=1;entryDx=0;entryDy=0;" edge="1" parent="1" target="Kcpcdb8gBXc4u03T2jaD-9">
          <mxGeometry width="50" height="50" relative="1" as="geometry">
            <mxPoint x="460" y="660" as="sourcePoint" />
            <mxPoint x="460" y="210" as="targetPoint" />
          </mxGeometry>
        </mxCell>
        <mxCell id="Kcpcdb8gBXc4u03T2jaD-9" value="" style="rounded=0;whiteSpace=wrap;html=1;" vertex="1" parent="1">
          <mxGeometry x="450" y="230" width="20" height="180" as="geometry" />
        </mxCell>
        <mxCell id="Kcpcdb8gBXc4u03T2jaD-10" value="CommandFactory" style="rounded=0;whiteSpace=wrap;html=1;" vertex="1" parent="1">
          <mxGeometry x="570" y="180" width="100" height="30" as="geometry" />
        </mxCell>
        <mxCell id="Kcpcdb8gBXc4u03T2jaD-11" value="" style="endArrow=none;dashed=1;html=1;dashPattern=1 3;strokeWidth=2;rounded=0;entryX=0.5;entryY=1;entryDx=0;entryDy=0;" edge="1" parent="1" source="Kcpcdb8gBXc4u03T2jaD-13" target="Kcpcdb8gBXc4u03T2jaD-10">
          <mxGeometry width="50" height="50" relative="1" as="geometry">
            <mxPoint x="620" y="660" as="sourcePoint" />
            <mxPoint x="760" y="310" as="targetPoint" />
          </mxGeometry>
        </mxCell>
        <mxCell id="Kcpcdb8gBXc4u03T2jaD-12" value="" style="endArrow=none;dashed=1;html=1;dashPattern=1 3;strokeWidth=2;rounded=0;entryX=0.5;entryY=1;entryDx=0;entryDy=0;" edge="1" parent="1" target="Kcpcdb8gBXc4u03T2jaD-13">
          <mxGeometry width="50" height="50" relative="1" as="geometry">
            <mxPoint x="620" y="660" as="sourcePoint" />
            <mxPoint x="620" y="210" as="targetPoint" />
          </mxGeometry>
        </mxCell>
        <mxCell id="Kcpcdb8gBXc4u03T2jaD-23" style="edgeStyle=orthogonalEdgeStyle;rounded=0;orthogonalLoop=1;jettySize=auto;html=1;" edge="1" parent="1">
          <mxGeometry relative="1" as="geometry">
            <mxPoint x="493" y="320" as="targetPoint" />
            <mxPoint x="613" y="320" as="sourcePoint" />
          </mxGeometry>
        </mxCell>
        <mxCell id="Kcpcdb8gBXc4u03T2jaD-13" value="" style="rounded=0;whiteSpace=wrap;html=1;" vertex="1" parent="1">
          <mxGeometry x="610" y="230" width="20" height="110" as="geometry" />
        </mxCell>
        <mxCell id="Kcpcdb8gBXc4u03T2jaD-14" value="LookCommand" style="rounded=0;whiteSpace=wrap;html=1;" vertex="1" parent="1">
          <mxGeometry x="720" y="180" width="100" height="30" as="geometry" />
        </mxCell>
        <mxCell id="Kcpcdb8gBXc4u03T2jaD-15" value="" style="endArrow=none;dashed=1;html=1;dashPattern=1 3;strokeWidth=2;rounded=0;entryX=0.5;entryY=1;entryDx=0;entryDy=0;" edge="1" parent="1" source="Kcpcdb8gBXc4u03T2jaD-17" target="Kcpcdb8gBXc4u03T2jaD-14">
          <mxGeometry width="50" height="50" relative="1" as="geometry">
            <mxPoint x="770" y="660" as="sourcePoint" />
            <mxPoint x="910" y="310" as="targetPoint" />
          </mxGeometry>
        </mxCell>
        <mxCell id="Kcpcdb8gBXc4u03T2jaD-16" value="" style="endArrow=none;dashed=1;html=1;dashPattern=1 3;strokeWidth=2;rounded=0;entryX=0.5;entryY=1;entryDx=0;entryDy=0;" edge="1" parent="1" target="Kcpcdb8gBXc4u03T2jaD-17">
          <mxGeometry width="50" height="50" relative="1" as="geometry">
            <mxPoint x="770" y="660" as="sourcePoint" />
            <mxPoint x="770" y="210" as="targetPoint" />
          </mxGeometry>
        </mxCell>
        <mxCell id="Kcpcdb8gBXc4u03T2jaD-32" style="edgeStyle=orthogonalEdgeStyle;rounded=0;orthogonalLoop=1;jettySize=auto;html=1;entryX=0;entryY=0.5;entryDx=0;entryDy=0;" edge="1" parent="1">
          <mxGeometry relative="1" as="geometry">
            <mxPoint x="780" y="424.58" as="sourcePoint" />
            <mxPoint x="950" y="424.58" as="targetPoint" />
          </mxGeometry>
        </mxCell>
        <mxCell id="Kcpcdb8gBXc4u03T2jaD-44" style="edgeStyle=orthogonalEdgeStyle;rounded=0;orthogonalLoop=1;jettySize=auto;html=1;" edge="1" parent="1">
          <mxGeometry relative="1" as="geometry">
            <mxPoint x="330" y="550" as="targetPoint" />
            <mxPoint x="760" y="550" as="sourcePoint" />
          </mxGeometry>
        </mxCell>
        <mxCell id="Kcpcdb8gBXc4u03T2jaD-17" value="" style="rounded=0;whiteSpace=wrap;html=1;" vertex="1" parent="1">
          <mxGeometry x="760" y="370" width="20" height="250" as="geometry" />
        </mxCell>
        <mxCell id="Kcpcdb8gBXc4u03T2jaD-19" value="&quot;apple&quot;" style="text;html=1;align=center;verticalAlign=middle;resizable=0;points=[];autosize=1;strokeColor=none;fillColor=none;" vertex="1" parent="1">
          <mxGeometry x="350" y="230" width="60" height="30" as="geometry" />
        </mxCell>
        <mxCell id="Kcpcdb8gBXc4u03T2jaD-20" value="" style="endArrow=classic;html=1;rounded=0;exitX=1.084;exitY=0.063;exitDx=0;exitDy=0;exitPerimeter=0;" edge="1" parent="1" source="Kcpcdb8gBXc4u03T2jaD-4">
          <mxGeometry width="50" height="50" relative="1" as="geometry">
            <mxPoint x="322" y="255" as="sourcePoint" />
            <mxPoint x="440" y="255" as="targetPoint" />
          </mxGeometry>
        </mxCell>
        <mxCell id="Kcpcdb8gBXc4u03T2jaD-21" value="&quot;look&quot;" style="text;html=1;align=center;verticalAlign=middle;resizable=0;points=[];autosize=1;strokeColor=none;fillColor=none;" vertex="1" parent="1">
          <mxGeometry x="493" y="260" width="50" height="30" as="geometry" />
        </mxCell>
        <mxCell id="Kcpcdb8gBXc4u03T2jaD-22" value="" style="endArrow=classic;html=1;rounded=0;exitX=1.084;exitY=0.063;exitDx=0;exitDy=0;exitPerimeter=0;" edge="1" parent="1">
          <mxGeometry width="50" height="50" relative="1" as="geometry">
            <mxPoint x="480" y="285" as="sourcePoint" />
            <mxPoint x="598" y="285" as="targetPoint" />
          </mxGeometry>
        </mxCell>
        <mxCell id="Kcpcdb8gBXc4u03T2jaD-24" value="new LookCommand()" style="text;html=1;align=center;verticalAlign=middle;resizable=0;points=[];autosize=1;strokeColor=none;fillColor=none;" vertex="1" parent="1">
          <mxGeometry x="470" y="290" width="140" height="30" as="geometry" />
        </mxCell>
        <mxCell id="Kcpcdb8gBXc4u03T2jaD-25" value="Execute(locationlist, &quot;apple&quot;)" style="text;html=1;align=center;verticalAlign=middle;resizable=0;points=[];autosize=1;strokeColor=none;fillColor=none;" vertex="1" parent="1">
          <mxGeometry x="470" y="360" width="180" height="30" as="geometry" />
        </mxCell>
        <mxCell id="Kcpcdb8gBXc4u03T2jaD-26" value="" style="endArrow=classic;html=1;rounded=0;exitX=1.084;exitY=0.063;exitDx=0;exitDy=0;exitPerimeter=0;" edge="1" parent="1">
          <mxGeometry width="50" height="50" relative="1" as="geometry">
            <mxPoint x="481" y="385" as="sourcePoint" />
            <mxPoint x="750" y="385" as="targetPoint" />
          </mxGeometry>
        </mxCell>
        <mxCell id="Kcpcdb8gBXc4u03T2jaD-28" value="SqlServer" style="rounded=0;whiteSpace=wrap;html=1;" vertex="1" parent="1">
          <mxGeometry x="910" y="180" width="100" height="30" as="geometry" />
        </mxCell>
        <mxCell id="Kcpcdb8gBXc4u03T2jaD-29" value="" style="endArrow=none;dashed=1;html=1;dashPattern=1 3;strokeWidth=2;rounded=0;entryX=0.5;entryY=1;entryDx=0;entryDy=0;" edge="1" parent="1" source="Kcpcdb8gBXc4u03T2jaD-31" target="Kcpcdb8gBXc4u03T2jaD-28">
          <mxGeometry width="50" height="50" relative="1" as="geometry">
            <mxPoint x="960" y="660" as="sourcePoint" />
            <mxPoint x="1100" y="310" as="targetPoint" />
          </mxGeometry>
        </mxCell>
        <mxCell id="Kcpcdb8gBXc4u03T2jaD-30" value="" style="endArrow=none;dashed=1;html=1;dashPattern=1 3;strokeWidth=2;rounded=0;entryX=0.5;entryY=1;entryDx=0;entryDy=0;" edge="1" parent="1" target="Kcpcdb8gBXc4u03T2jaD-31">
          <mxGeometry width="50" height="50" relative="1" as="geometry">
            <mxPoint x="960" y="660" as="sourcePoint" />
            <mxPoint x="960" y="210" as="targetPoint" />
          </mxGeometry>
        </mxCell>
        <mxCell id="Kcpcdb8gBXc4u03T2jaD-41" style="edgeStyle=orthogonalEdgeStyle;rounded=0;orthogonalLoop=1;jettySize=auto;html=1;" edge="1" parent="1" source="Kcpcdb8gBXc4u03T2jaD-31">
          <mxGeometry relative="1" as="geometry">
            <mxPoint x="790" y="515" as="targetPoint" />
          </mxGeometry>
        </mxCell>
        <mxCell id="Kcpcdb8gBXc4u03T2jaD-31" value="" style="rounded=0;whiteSpace=wrap;html=1;" vertex="1" parent="1">
          <mxGeometry x="950" y="410" width="20" height="210" as="geometry" />
        </mxCell>
        <mxCell id="Kcpcdb8gBXc4u03T2jaD-37" value="&quot;apple&quot;" style="text;html=1;align=center;verticalAlign=middle;resizable=0;points=[];autosize=1;strokeColor=none;fillColor=none;" vertex="1" parent="1">
          <mxGeometry x="820" y="390" width="60" height="30" as="geometry" />
        </mxCell>
        <mxCell id="Kcpcdb8gBXc4u03T2jaD-39" style="edgeStyle=orthogonalEdgeStyle;rounded=0;orthogonalLoop=1;jettySize=auto;html=1;" edge="1" parent="1" source="Kcpcdb8gBXc4u03T2jaD-38">
          <mxGeometry relative="1" as="geometry">
            <mxPoint x="990" y="470" as="targetPoint" />
          </mxGeometry>
        </mxCell>
        <mxCell id="Kcpcdb8gBXc4u03T2jaD-38" value="" style="rounded=0;whiteSpace=wrap;html=1;" vertex="1" parent="1">
          <mxGeometry x="960" y="430" width="20" height="50" as="geometry" />
        </mxCell>
        <mxCell id="Kcpcdb8gBXc4u03T2jaD-40" value="query &quot;apple&quot;" style="text;html=1;align=center;verticalAlign=middle;resizable=0;points=[];autosize=1;strokeColor=none;fillColor=none;" vertex="1" parent="1">
          <mxGeometry x="980" y="420" width="90" height="30" as="geometry" />
        </mxCell>
        <mxCell id="Kcpcdb8gBXc4u03T2jaD-42" value="List&amp;lt;string&amp;gt; { apple item info}" style="text;html=1;align=center;verticalAlign=middle;resizable=0;points=[];autosize=1;strokeColor=none;fillColor=none;" vertex="1" parent="1">
          <mxGeometry x="770" y="480" width="180" height="30" as="geometry" />
        </mxCell>
        <mxCell id="Kcpcdb8gBXc4u03T2jaD-45" value="returns List&amp;lt;string&amp;gt; {apple item info}" style="text;html=1;align=center;verticalAlign=middle;resizable=0;points=[];autosize=1;strokeColor=none;fillColor=none;" vertex="1" parent="1">
          <mxGeometry x="408" y="520" width="220" height="30" as="geometry" />
        </mxCell>
      </root>
    </mxGraphModel>
  </diagram>
</mxfile>
